<mxfile host="app.diagrams.net" agent="Mozilla/5.0 (Windows NT 10.0; Win64; x64) AppleWebKit/537.36 (KHTML, like Gecko) Chrome/141.0.0.0 Safari/537.36 Edg/141.0.0.0" version="28.2.8">
  <diagram name="Page-1" id="5fr7QZuYHRRBMC0_LtsV">
    <mxGraphModel dx="1426" dy="832" grid="1" gridSize="10" guides="1" tooltips="1" connect="1" arrows="1" fold="1" page="1" pageScale="1" pageWidth="850" pageHeight="1100" math="0" shadow="0">
      <root>
        <mxCell id="0" />
        <mxCell id="1" parent="0" />
        <mxCell id="VqfFzvorD4Kw-wLQ9LzB-1" value="S/4HANA" style="image;image=img/lib/sap/SAP_Logo.svg;editableCssRules=.*;verticalLabelPosition=middle;labelBackgroundColor=none;verticalAlign=middle;imageAspect=0;labelPosition=right;align=left;fontSize=16;fontStyle=1;spacingLeft=0;fontColor=#002A86;spacing=0;" vertex="1" parent="1">
          <mxGeometry x="340" y="320" width="37" height="19" as="geometry" />
        </mxCell>
        <mxCell id="VqfFzvorD4Kw-wLQ9LzB-3" style="edgeStyle=orthogonalEdgeStyle;rounded=0;orthogonalLoop=1;jettySize=auto;html=1;" edge="1" parent="1" source="VqfFzvorD4Kw-wLQ9LzB-2">
          <mxGeometry relative="1" as="geometry">
            <mxPoint x="370" y="310" as="targetPoint" />
          </mxGeometry>
        </mxCell>
        <mxCell id="VqfFzvorD4Kw-wLQ9LzB-4" value="XML" style="edgeLabel;html=1;align=center;verticalAlign=middle;resizable=0;points=[];" vertex="1" connectable="0" parent="VqfFzvorD4Kw-wLQ9LzB-3">
          <mxGeometry x="-0.2966" y="-2" relative="1" as="geometry">
            <mxPoint as="offset" />
          </mxGeometry>
        </mxCell>
        <mxCell id="VqfFzvorD4Kw-wLQ9LzB-2" value="Vendors" style="rounded=0;whiteSpace=wrap;html=1;" vertex="1" parent="1">
          <mxGeometry x="60" y="180" width="120" height="60" as="geometry" />
        </mxCell>
        <mxCell id="VqfFzvorD4Kw-wLQ9LzB-7" value="" style="edgeStyle=orthogonalEdgeStyle;rounded=0;orthogonalLoop=1;jettySize=auto;html=1;" edge="1" parent="1" source="VqfFzvorD4Kw-wLQ9LzB-5" target="VqfFzvorD4Kw-wLQ9LzB-6">
          <mxGeometry relative="1" as="geometry" />
        </mxCell>
        <mxCell id="VqfFzvorD4Kw-wLQ9LzB-5" value="Convert XML to PDF" style="rounded=0;whiteSpace=wrap;html=1;" vertex="1" parent="1">
          <mxGeometry x="250" y="380" width="120" height="60" as="geometry" />
        </mxCell>
        <mxCell id="VqfFzvorD4Kw-wLQ9LzB-6" value="PRocess&amp;nbsp;" style="whiteSpace=wrap;html=1;rounded=0;" vertex="1" parent="1">
          <mxGeometry x="450" y="380" width="120" height="60" as="geometry" />
        </mxCell>
        <mxCell id="VqfFzvorD4Kw-wLQ9LzB-8" value="VIM&amp;nbsp;" style="swimlane;whiteSpace=wrap;html=1;" vertex="1" parent="1">
          <mxGeometry x="225" y="350" width="375" height="200" as="geometry" />
        </mxCell>
        <mxCell id="VqfFzvorD4Kw-wLQ9LzB-10" value="Future State" style="text;html=1;whiteSpace=wrap;strokeColor=none;fillColor=none;align=center;verticalAlign=middle;rounded=0;fontStyle=1" vertex="1" parent="1">
          <mxGeometry x="70" y="140" width="170" height="30" as="geometry" />
        </mxCell>
        <mxCell id="VqfFzvorD4Kw-wLQ9LzB-11" value="If we can build list of all possible fields in xml and convert it to a PDF in a format VIM can process, we should be ok&lt;div&gt;&lt;br&gt;&lt;/div&gt;" style="text;html=1;whiteSpace=wrap;strokeColor=none;fillColor=none;align=center;verticalAlign=middle;rounded=0;" vertex="1" parent="1">
          <mxGeometry x="180" y="660" width="60" height="30" as="geometry" />
        </mxCell>
      </root>
    </mxGraphModel>
  </diagram>
</mxfile>
